<svg width="0" height="0" class="hidden">
  <symbol id="light" version="1.1" xml:space="preserve" xmlns="http://www.w3.org/2000/svg" xmlns:xlink="http://www.w3.org/1999/xlink" viewBox="-5 -7 110 110">
    <path d="M69.294,11.442c-6.788-5.594-15.724-7.82-24.512-6.109C32.951,7.636,23.449,17.623,21.675,29.62  c-1.447,9.79,2.031,19.567,9.304,26.155c3.277,2.968,5.254,7.243,5.568,12.039c0.006,0.087,0.023,0.171,0.042,0.254v15.039  c0,0.828,0.671,1.5,1.5,1.5h1.495c0.609,4.359,3.813,7.697,7.672,7.697h6.81c3.859,0,7.062-3.338,7.671-7.697h1.495  c0.828,0,1.5-0.672,1.5-1.5V67.828c0-0.003,0.001-0.006,0.001-0.01c0-4.462,2.026-8.771,5.706-12.133  c6.062-5.538,9.538-13.415,9.538-21.61C79.978,25.287,76.084,17.037,69.294,11.442z M45.357,39.91h-2.305  c-1.271,0-2.305-1.034-2.305-2.305s1.034-2.305,2.305-2.305s2.305,1.034,2.305,2.305V39.91z M55.966,37.605  c0-1.271,1.034-2.305,2.306-2.305c1.271,0,2.305,1.034,2.305,2.305s-1.034,2.305-2.305,2.305h-2.303L55.966,37.605z M55.063,69.211  h6.67v12.396H60.36c-0.003,0-0.006-0.001-0.01-0.001s-0.006,0.001-0.01,0.001H40.982c-0.003,0-0.006-0.001-0.01-0.001  s-0.006,0.001-0.01,0.001H39.59V69.211h14.366 M48.357,66.211V42.91h4.617l0.034,23.301H48.357z M54.066,89.304h-6.81  c-2.238,0-4.117-2.004-4.637-4.697h16.083C58.183,87.3,56.304,89.304,54.066,89.304z M68.416,53.471  c-3.872,3.537-6.164,8.013-6.593,12.74h-5.816L55.974,42.91h2.298c2.925,0,5.305-2.38,5.305-5.305c0-2.925-2.38-5.305-5.305-5.305  c-2.926,0-5.306,2.38-5.306,5.307l0.003,2.303h-4.612v-2.305c0-2.925-2.38-5.305-5.305-5.305c-2.925,0-5.305,2.38-5.305,5.305  c0,2.925,2.38,5.305,5.305,5.305h2.305v23.301h-5.972c-0.636-5.005-2.864-9.465-6.393-12.66c-6.528-5.914-9.65-14.696-8.35-23.493  c1.591-10.76,10.108-19.716,20.712-21.781c7.908-1.538,15.938,0.458,22.03,5.48c6.096,5.023,9.592,12.429,9.592,20.319  C76.978,41.43,73.857,48.5,68.416,53.471z"></path>
  </symbol>
  <symbol version="1.1" id="cook" xmlns="http://www.w3.org/2000/svg" xmlns:xlink="http://www.w3.org/1999/xlink" xml:space="preserve" viewBox="-80 -80 630 630">
    <g>
      <path d="M428.705,53.271c-26.587-26.587-61.937-41.229-99.537-41.229c-35.151,0-68.336,12.798-94.233,36.188
		c-25.897-23.391-59.083-36.188-94.233-36.188c-37.6,0-72.95,14.642-99.537,41.229c-54.885,54.885-54.885,144.189,0,199.074
		l16.893,16.893v181.089c0,4.142,3.358,7.5,7.5,7.5h338.755c4.142,0,7.5-3.358,7.5-7.5V269.238l16.893-16.893
		C483.589,197.46,483.589,108.156,428.705,53.271z M73.057,442.827v-15h323.755v15H73.057z M418.098,241.738l-19.09,19.09
		c-1.407,1.406-2.197,3.314-2.197,5.303v146.695H73.057V266.131c0-1.989-0.79-3.897-2.197-5.303l-19.09-19.09
		c-49.036-49.036-49.036-128.824,0-177.861c23.754-23.754,55.337-36.836,88.931-36.836c31.081,0,60.435,11.206,83.466,31.694
		l-36.963,36.962c-2.929,2.929-2.929,7.678,0,10.606c1.464,1.465,3.384,2.197,5.303,2.197c1.919,0,3.839-0.732,5.303-2.197
		l42.073-42.073c0.061-0.061,0.112-0.126,0.17-0.188c0.06-0.057,0.124-0.107,0.183-0.166c23.754-23.754,55.337-36.836,88.93-36.836
		c33.594,0,65.176,13.082,88.931,36.836C467.134,112.914,467.134,192.702,418.098,241.738z"></path>
      <path d="M374.312,258.631h-44.133l27.41-65.639c1.596-3.822-0.208-8.215-4.031-9.811s-8.215,0.209-9.811,4.031l-29.824,71.419
		h-71.488v-68.529c0-4.142-3.358-7.5-7.5-7.5s-7.5,3.358-7.5,7.5v68.529h-71.488l-29.824-71.419
		c-1.596-3.823-5.989-5.625-9.811-4.031c-3.822,1.596-5.627,5.989-4.031,9.811l27.41,65.639H95.557c-4.142,0-7.5,3.358-7.5,7.5
		s3.358,7.5,7.5,7.5h278.755c4.142,0,7.5-3.358,7.5-7.5S378.454,258.631,374.312,258.631z"></path>
    </g>
  </symbol>
  <symbol version="1.1" id="iron" xmlns="http://www.w3.org/2000/svg" xmlns:xlink="http://www.w3.org/1999/xlink" xml:space="preserve" viewBox="-2 -2 34 34">
    <path d="M30.487,11.137l-1.362-4.085C28.716,5.826,27.57,5,26.279,5h-2.323c-4.844,0-9.524,1.758-13.17,4.948
	l-0.347,0.304c-1.326,1.16-2.493,2.491-3.47,3.957l-6.01,9.014C0.738,23.555,0.976,24,1.375,24h25.066c0.552,0,1-0.448,1-1v-1
	l0.63-0.63C30.749,18.692,31.684,14.73,30.487,11.137z M7.8,14.764c0.928-1.393,2.038-2.658,3.297-3.76l0.346-0.303
	C14.909,7.67,19.352,6,23.956,6h2.323c0.862,0,1.625,0.55,1.897,1.368l1.362,4.086c0.501,1.503,0.576,3.062,0.29,4.547h-1.81
	c-0.006,0-0.012,0.001-0.018,0.001V15.5c0-0.828-0.672-1.5-1.5-1.5S25,14.672,25,15.5v0.674c-0.334,0.033-0.667,0.072-1,0.116V15.5
	c0-0.828-0.672-1.5-1.5-1.5S21,14.672,21,15.5v1.335c-0.337,0.076-0.674,0.148-1.008,0.239l-3.248,0.887
	C14.215,18.65,11.604,19,8.982,19H4.976L7.8,14.764z M27,15.5v2c0,0.276-0.224,0.5-0.5,0.5S26,17.776,26,17.5v-2
	c0-0.276,0.224-0.5,0.5-0.5S27,15.224,27,15.5z M23,15.5v2c0,0.276-0.224,0.5-0.5,0.5S22,17.776,22,17.5v-2
	c0-0.276,0.224-0.5,0.5-0.5S23,15.224,23,15.5z M26.441,23H2.31l0.667-1h23.465V23z M27.364,20.663L27.02,21H3.643l0.667-1h4.673
	c2.71,0,5.41-0.361,8.025-1.074l3.248-0.887c0.261-0.071,0.526-0.128,0.79-0.187C21.205,18.51,21.793,19,22.5,19
	c0.828,0,1.5-0.672,1.5-1.5v-0.198c0.333-0.046,0.666-0.086,1-0.121V17.5c0,0.828,0.672,1.5,1.5,1.5s1.5-0.672,1.5-1.5
	c0,0,0.012-0.5,0.018-0.5h1.554C29.145,18.351,28.413,19.613,27.364,20.663z M14.501,12h10.336c1.365,0,2.329-1.337,1.897-2.632
	C26.462,8.551,25.698,8,24.837,8h-0.881c-3.505,0-6.901,1.089-9.746,3.085C13.81,11.365,14.012,12,14.501,12z M23.956,9h0.881
	c0.431,0,0.812,0.275,0.949,0.684c0.103,0.309,0.053,0.637-0.137,0.901C25.458,10.849,25.162,11,24.837,11h-8.611
	C18.591,9.687,21.232,9,23.956,9z"></path>
  </symbol>
  <symbol version="1.1" xml:space="preserve" xmlns="http://www.w3.org/2000/svg" xmlns:xlink="http://www.w3.org/1999/xlink" viewBox="0 0 100 100" id="garden">
    <g id="tree"></g>
    <g id="plant"></g>
    <g id="flower"></g>
    <g id="flower_pot"></g>
    <g id="rose"></g>
    <g id="garden"></g>
    <g id="fance"></g>
    <g id="floral"></g>
    <g id="sunflower"></g>
    <g id="sprinkle"></g>
    <g id="water_hose"></g>
    <g id="planting">
      <g>
        <path d="M92.8,82.1c-0.3-0.2-0.6-0.4-0.9-0.6c-0.3-0.2-0.8-0.7-1.2-1.2c-0.8-0.9-1.7-1.9-3-2.4c-0.9-0.3-1.9-0.2-2.8-0.1    c-0.7,0.1-1.4,0.2-2,0.1c-0.5-0.1-1-0.5-1.6-0.9c-0.8-0.6-1.8-1.2-2.9-1.3c-1-0.1-1.9,0.2-2.8,0.5c-0.7,0.2-1.4,0.5-1.9,0.4    c-0.5,0-1.1-0.3-1.8-0.7C71,75.5,70.1,75,69,75c-1.1,0-2,0.5-2.9,0.9C66,75.9,66,76,65.9,76c1.4-1.7,2.7-3.5,3.7-5.4l3.3-6.4    c0.1-0.2,0.1-0.5,0.1-0.8s-0.3-0.5-0.5-0.6l-6.2-3.2l7.4-14.2c0.1-0.3,0.4-0.5,0.7-0.5l3-0.5c0.9-0.2,1.7-0.7,2.2-1.6l3.2-6.2    c0.4-0.7,0.4-1.5,0.2-2.3c-0.2-0.8-0.8-1.4-1.5-1.8L72.5,28c-0.7-0.4-1.5-0.4-2.3-0.2c-0.8,0.2-1.4,0.8-1.8,1.5l-3.2,6.2    c-0.4,0.8-0.4,1.8,0,2.7l1.3,2.7c0.1,0.3,0.1,0.6,0,0.9l-7.4,14.2l-6.2-3.2c-0.5-0.3-1.1-0.1-1.3,0.4l-3.3,6.4    c-2.9,5.6-3.8,12.1-2.7,18.4c-0.2,0-0.5,0-0.7-0.1c-0.5-0.1-1-0.5-1.6-0.9c-0.8-0.6-1.8-1.2-2.9-1.3c-1-0.1-1.9,0.2-2.8,0.5    c-0.7,0.2-1.3,0.5-1.9,0.4c-0.5,0-1.1-0.3-1.8-0.7c-0.3-0.1-0.6-0.3-0.9-0.4V60.4l3.4-3.4c1.1-0.1,5.4-0.8,7.3-4.8c0,0,0,0,0,0    c2.1-4.2,1-11.1,0.9-11.4c-0.1-0.3-0.3-0.6-0.5-0.7c-0.3-0.1-0.6-0.1-0.9,0c-0.3,0.1-6.4,3.4-8.5,7.6c-1.7,3.3-0.6,6.6,0.1,8    L33,57.6V42.8c1.6-0.7,2.6-2.9,3-5.1c1.4,1,3.1,1.7,4.5,1.7c0.8,0,1.5-0.2,2.1-0.8c0,0,0,0,0,0c1.5-1.5,0.6-4.4-0.9-6.6    c2.6-0.5,5.3-1.9,5.3-4c0-2.1-2.7-3.5-5.3-4c1.5-2.2,2.4-5.1,0.9-6.6c-1.5-1.5-4.4-0.6-6.6,0.9c-0.5-2.6-1.9-5.3-4-5.3    s-3.5,2.7-4,5.3c-2.2-1.5-5.1-2.4-6.6-0.9c-1.5,1.5-0.6,4.4,0.9,6.6c-2.6,0.5-5.3,1.9-5.3,4s2.7,3.5,5.3,4    c-1.5,2.2-2.4,5.1-0.9,6.6c0.5,0.5,1.3,0.8,2.1,0.8c1.4,0,3.1-0.7,4.5-1.7c0.4,2.2,1.5,4.4,3,5.1v19.8l-1.8-1.8    c0.7-1.5,1.7-4.7,0.1-8c-2.1-4.2-8.2-7.5-8.5-7.6c-0.3-0.2-0.6-0.2-0.9,0c-0.3,0.1-0.5,0.4-0.5,0.7c0,0.3-1.1,7.2,0.9,11.4    c0,0,0,0,0,0c2,3.9,6.3,4.6,7.3,4.8l3.4,3.4V75c-1.1,0-2,0.5-2.9,0.9c-0.6,0.3-1.3,0.6-1.8,0.7c-0.6,0-1.2-0.2-1.9-0.4    c-0.9-0.3-1.8-0.6-2.8-0.5c-1.1,0.2-2,0.8-2.9,1.3c-0.6,0.4-1.2,0.8-1.6,0.9c-0.6,0.1-1.3,0-2-0.1c-0.9-0.1-1.9-0.3-2.8,0.1    c-1.3,0.5-2.2,1.5-3,2.4c-0.4,0.5-0.8,0.9-1.2,1.2c-0.3,0.2-0.6,0.4-0.9,0.6C5.6,83.1,4,84.1,4,86c0,0.6,0.4,1,1,1h38h14h38    c0.6,0,1-0.4,1-1C96,84.2,94.4,83.1,92.8,82.1z M36.5,48.6c1.3-2.6,4.5-4.8,6.3-6c0.2,2.1,0.3,6.1-0.9,8.7v0    c-1.3,2.6-4,3.4-5.3,3.6C36.1,53.8,35.3,51.2,36.5,48.6z M22.1,56.3L22.1,56.3c-1.3-2.6-1.1-6.6-0.9-8.7c1.8,1.1,5.1,3.4,6.3,6    c1.3,2.6,0.4,5.2-0.1,6.3C26.1,59.7,23.3,58.9,22.1,56.3z M33.4,31c-0.1,0.1-0.2,0.1-0.3,0.1c-0.7,0.2-1.4,0.2-2.2,0    c-0.1,0-0.2-0.1-0.3-0.1c0,0,0,0,0,0c0,0,0,0,0,0c-0.7-0.3-1.2-0.8-1.5-1.5c0,0,0,0,0,0c0,0,0,0,0,0c-0.1-0.1-0.1-0.2-0.1-0.3    c0,0,0,0,0,0c-0.1-0.4-0.2-0.7-0.2-1.1s0.1-0.7,0.2-1.1c0-0.1,0.1-0.2,0.1-0.3c0,0,0,0,0,0c0,0,0,0,0,0c0.3-0.7,0.8-1.2,1.5-1.5    c0,0,0,0,0,0c0,0,0,0,0,0c0.1-0.1,0.2-0.1,0.3-0.1c0.7-0.2,1.4-0.2,2.2,0c0.1,0,0.2,0.1,0.3,0.1c0,0,0,0,0,0c0,0,0,0,0,0    c0.7,0.3,1.2,0.8,1.5,1.5c0,0,0,0,0,0c0,0,0,0,0,0c0.1,0.1,0.1,0.2,0.1,0.3c0.1,0.4,0.2,0.7,0.2,1.1s-0.1,0.7-0.2,1.1    c0,0.1-0.1,0.2-0.1,0.3c0,0,0,0,0,0c0,0,0,0,0,0C34.6,30.1,34.1,30.6,33.4,31C33.4,31,33.4,31,33.4,31C33.4,31,33.4,31,33.4,31z     M41.2,37.2L41.2,37.2c-0.5,0.5-3-0.1-5-1.8c0-0.1,0-0.1,0-0.2c0-0.2,0-0.5-0.1-0.7c0-0.1,0-0.2,0-0.3c0-0.2-0.1-0.4-0.1-0.5    c0-0.1,0-0.2-0.1-0.3c-0.1-0.2-0.1-0.3-0.2-0.5c0-0.1,0-0.1-0.1-0.2c-0.1-0.2-0.2-0.4-0.3-0.6c0,0,0,0,0,0    c0.3-0.2,0.5-0.4,0.7-0.7c0,0,0,0,0,0c0.2,0.1,0.4,0.2,0.6,0.3c0.1,0,0.1,0,0.2,0.1c0.2,0.1,0.3,0.1,0.5,0.2c0.1,0,0.2,0,0.3,0.1    c0.2,0,0.3,0.1,0.5,0.1c0.1,0,0.2,0,0.3,0c0.2,0,0.4,0,0.7,0.1c0.1,0,0.1,0,0.2,0C41.1,34.2,41.7,36.6,41.2,37.2z M45,28    c0,0.8-2.4,2.2-5.2,2.2c0,0-0.1,0-0.1,0c0,0-0.1,0-0.1,0c-0.3,0-0.6,0-0.9-0.1c-0.1,0-0.2,0-0.2,0c-0.2,0-0.4-0.1-0.5-0.1    c-0.1,0-0.2,0-0.2-0.1c-0.2-0.1-0.3-0.1-0.4-0.2c0,0-0.1-0.1-0.1-0.1c0,0,0,0,0,0c0.2-0.5,0.3-1.1,0.3-1.6c0-0.5-0.1-1.1-0.3-1.6    c0,0,0,0,0,0c0,0,0.1-0.1,0.1-0.1c0.1-0.1,0.3-0.1,0.4-0.2c0.1,0,0.1-0.1,0.2-0.1c0.2,0,0.3-0.1,0.5-0.1c0.1,0,0.2,0,0.2,0    c0.3,0,0.6-0.1,0.9-0.1c0,0,0.1,0,0.1,0c0,0,0.1,0,0.1,0C42.6,25.8,45,27.2,45,28z M41.2,18.8c0.5,0.5-0.1,3-1.8,5    c-0.1,0-0.2,0-0.2,0c-0.2,0-0.5,0-0.7,0.1c-0.1,0-0.2,0-0.3,0c-0.2,0-0.4,0.1-0.5,0.1c-0.1,0-0.2,0-0.3,0.1    c-0.2,0.1-0.3,0.1-0.5,0.2c-0.1,0-0.1,0-0.2,0.1c-0.2,0.1-0.4,0.2-0.6,0.3c0,0,0,0,0,0c-0.2-0.3-0.4-0.5-0.7-0.7c0,0,0,0,0,0    c0.1-0.2,0.2-0.4,0.3-0.6c0-0.1,0-0.1,0.1-0.2c0.1-0.2,0.1-0.3,0.2-0.5c0-0.1,0-0.2,0.1-0.3c0-0.2,0.1-0.3,0.1-0.5    c0-0.1,0-0.2,0-0.3c0-0.2,0-0.4,0.1-0.7c0-0.1,0-0.1,0-0.2C38.2,18.9,40.6,18.3,41.2,18.8z M32,15c0.8,0,2.2,2.4,2.2,5.2    c0,0,0,0.1,0,0.1c0,0,0,0.1,0,0.1c0,0.3,0,0.6-0.1,0.9c0,0.1,0,0.2,0,0.2c0,0.2-0.1,0.4-0.1,0.5c0,0.1,0,0.2-0.1,0.2    c-0.1,0.2-0.1,0.3-0.2,0.4c0,0,0,0.1-0.1,0.1c0,0,0,0,0,0c-0.5-0.2-1.1-0.3-1.6-0.3c-0.5,0-1.1,0.1-1.6,0.3c0,0,0,0,0,0    c0,0-0.1-0.1-0.1-0.1c-0.1-0.1-0.2-0.3-0.2-0.4c0-0.1-0.1-0.1-0.1-0.2c0-0.2-0.1-0.3-0.1-0.5c0-0.1,0-0.2,0-0.2    c0-0.3-0.1-0.6-0.1-0.9c0,0,0-0.1,0-0.1c0,0,0-0.1,0-0.1C29.8,17.4,31.2,15,32,15z M22.8,18.8c0.5-0.5,3,0.1,5,1.8    c0,0.1,0,0.1,0,0.2c0,0.2,0,0.5,0.1,0.7c0,0.1,0,0.2,0,0.3c0,0.2,0.1,0.4,0.1,0.5c0,0.1,0,0.2,0.1,0.3c0.1,0.2,0.1,0.3,0.2,0.5    c0,0.1,0,0.1,0.1,0.2c0.1,0.2,0.2,0.4,0.3,0.6c0,0,0,0,0,0c-0.3,0.2-0.5,0.4-0.7,0.7c0,0,0,0,0,0c-0.2-0.1-0.4-0.2-0.6-0.3    c-0.1,0-0.1,0-0.2-0.1c-0.2-0.1-0.3-0.1-0.5-0.2c-0.1,0-0.2,0-0.3-0.1c-0.2,0-0.3-0.1-0.5-0.1c-0.1,0-0.2,0-0.3,0    c-0.2,0-0.4,0-0.7-0.1c-0.1,0-0.1,0-0.2,0C22.9,21.8,22.3,19.4,22.8,18.8z M19,28c0-0.8,2.4-2.2,5.2-2.2c0,0,0.1,0,0.1,0    c0,0,0.1,0,0.1,0c0.3,0,0.6,0,0.9,0.1c0.1,0,0.2,0,0.2,0c0.2,0,0.4,0.1,0.5,0.1c0.1,0,0.2,0,0.2,0.1c0.2,0.1,0.3,0.1,0.4,0.2    c0,0,0.1,0.1,0.1,0.1c0,0,0,0,0,0c-0.2,0.5-0.3,1.1-0.3,1.6s0.1,1.1,0.3,1.6c0,0,0,0,0,0c0,0-0.1,0.1-0.1,0.1    c-0.1,0.1-0.3,0.1-0.4,0.2c-0.1,0-0.1,0.1-0.2,0.1c-0.2,0-0.3,0.1-0.5,0.1c-0.1,0-0.2,0-0.2,0c-0.3,0-0.6,0.1-0.9,0.1    c0,0-0.1,0-0.1,0c0,0-0.1,0-0.1,0C21.4,30.2,19,28.8,19,28z M22.8,37.2c-0.5-0.5,0.1-3,1.8-5c0.1,0,0.2,0,0.2,0    c0.2,0,0.5,0,0.7-0.1c0.1,0,0.2,0,0.3,0c0.2,0,0.4-0.1,0.5-0.1c0.1,0,0.2,0,0.3-0.1c0.2-0.1,0.3-0.1,0.5-0.2c0.1,0,0.1,0,0.2-0.1    c0.2-0.1,0.4-0.2,0.6-0.3c0,0,0,0,0,0c0.2,0.3,0.4,0.5,0.7,0.7c0,0,0,0,0,0c-0.1,0.2-0.2,0.4-0.3,0.6c0,0.1,0,0.1-0.1,0.2    c-0.1,0.2-0.1,0.3-0.2,0.5c0,0.1,0,0.2-0.1,0.3c0,0.2-0.1,0.3-0.1,0.5c0,0.1,0,0.2,0,0.3c0,0.2,0,0.4-0.1,0.7c0,0.1,0,0.1,0,0.2    C25.8,37.1,23.3,37.7,22.8,37.2z M29.8,35.8c0,0,0-0.1,0-0.1c0,0,0-0.1,0-0.1c0-0.3,0-0.6,0.1-0.9c0-0.1,0-0.2,0-0.2    c0-0.2,0.1-0.4,0.1-0.5c0-0.1,0-0.2,0.1-0.2c0.1-0.2,0.1-0.3,0.2-0.4c0,0,0-0.1,0.1-0.1c0,0,0,0,0,0c1.1,0.3,2.2,0.3,3.2,0    c0,0,0,0,0,0c0,0,0.1,0.1,0.1,0.1c0.1,0.1,0.2,0.3,0.2,0.4c0,0.1,0.1,0.1,0.1,0.2c0,0.2,0.1,0.3,0.1,0.5c0,0.1,0,0.2,0,0.2    c0,0.3,0.1,0.6,0.1,0.9c0,0,0,0.1,0,0.1c0,0,0,0.1,0,0.1C34.2,38.6,32.8,41,32,41S29.8,38.6,29.8,35.8z M60.9,56.9l7.4-14.2    c0.4-0.8,0.4-1.8,0-2.7L67,37.3c-0.1-0.3-0.1-0.6,0-0.9l3.2-6.2c0.1-0.2,0.3-0.4,0.6-0.5c0.3-0.1,0.5-0.1,0.8,0.1l8.9,4.6    c0.2,0.1,0.4,0.3,0.5,0.6c0.1,0.3,0.1,0.5-0.1,0.8l-3.2,6.2c-0.1,0.3-0.4,0.5-0.7,0.5l-3,0.5c-0.9,0.2-1.7,0.7-2.2,1.6l-7.4,14.2    l-1-0.5L60.9,56.9z M50,60.5l2.9-5.5l9.3,4.8l2.3,1.2c0,0,0,0,0,0l6.2,3.2l-2.9,5.6c-1.3,2.4-2.9,4.6-4.9,6.6    c-0.2-0.1-0.3-0.1-0.5-0.2c-0.9-0.3-1.8-0.6-2.8-0.5c-1.1,0.2-2,0.8-2.9,1.4c-0.6,0.4-1.2,0.8-1.6,0.9c-0.6,0.1-1.3,0-2-0.1    c-0.9-0.1-1.9-0.3-2.8,0.1c-0.1,0-0.2,0.1-0.3,0.2c-0.1,0-0.2-0.1-0.3-0.2c-0.7-0.3-1.4-0.2-2.1-0.2C46.4,71.9,47.3,65.8,50,60.5z     M43,85H6.5c0.4-0.4,1-0.8,1.8-1.3c0.3-0.2,0.6-0.4,1-0.6c0.5-0.4,1-0.9,1.5-1.5c0.7-0.8,1.4-1.6,2.2-1.9c0.5-0.2,1.1-0.1,1.8,0    c0.8,0.1,1.8,0.3,2.8,0c0.8-0.2,1.6-0.7,2.3-1.2c0.7-0.5,1.4-0.9,2-1c0.5-0.1,1.2,0.2,1.9,0.4c0.8,0.3,1.7,0.6,2.7,0.5    c0.9-0.1,1.7-0.5,2.5-0.9c0.7-0.4,1.4-0.7,2-0.7c0.6,0,1.3,0.3,2,0.7c0.8,0.4,1.6,0.8,2.5,0.9c1,0.1,1.9-0.3,2.7-0.5    c0.7-0.2,1.4-0.5,1.9-0.4c0.6,0.1,1.3,0.6,2,1c0.7,0.5,1.5,1,2.3,1.2c1,0.2,1.9,0.1,2.8,0c0.7-0.1,1.4-0.2,1.8,0    c0.8,0.3,1.5,1.1,2.2,1.9c0.5,0.6,1,1.1,1.5,1.5c0.3,0.2,0.6,0.4,1,0.6c0.8,0.5,1.4,0.9,1.8,1.3H43z M57.8,85    c-0.5-1.3-1.7-2.1-3.1-3c-0.3-0.2-0.6-0.4-0.9-0.6c-0.3-0.2-0.7-0.7-1.2-1.2c-0.2-0.2-0.3-0.4-0.5-0.6c0.2,0,0.5,0.1,0.7,0.1    c0.8,0.1,1.8,0.3,2.8,0c0.8-0.2,1.6-0.7,2.3-1.2c0.7-0.5,1.4-0.9,2-1c0.5-0.1,1.2,0.2,1.9,0.4c0.3,0.1,0.7,0.2,1,0.3c0,0,0,0,0,0    c0.5,0.1,1.1,0.3,1.7,0.2c0.9-0.1,1.7-0.5,2.5-0.9c0.7-0.4,1.4-0.7,2-0.7c0.6,0,1.3,0.3,2,0.7c0.8,0.4,1.6,0.8,2.5,0.9    c1,0.1,1.9-0.3,2.7-0.5c0.7-0.2,1.4-0.5,1.9-0.4c0.6,0.1,1.3,0.6,2,1c0.7,0.5,1.5,1,2.3,1.2c1,0.2,1.9,0.1,2.8,0    c0.7-0.1,1.4-0.2,1.8,0c0.8,0.3,1.5,1.1,2.2,1.9c0.5,0.6,1,1.1,1.5,1.5c0.3,0.2,0.7,0.4,1,0.7c0.8,0.5,1.4,0.9,1.8,1.3H57.8z"></path>
        <path d="M71.5,38.7l1.8,0.9c0.4,0.2,0.9,0.3,1.4,0.3c1.1,0,2.1-0.6,2.7-1.6c0.4-0.7,0.4-1.5,0.2-2.3c-0.2-0.8-0.8-1.4-1.5-1.8    l-1.8-0.9c-0.7-0.4-1.5-0.4-2.3-0.2c-0.8,0.2-1.4,0.8-1.8,1.5C69.4,36.1,70,37.9,71.5,38.7z M71.9,35.5c0.1-0.2,0.3-0.4,0.6-0.5    c0.3-0.1,0.5-0.1,0.8,0.1l1.8,0.9c0.2,0.1,0.4,0.3,0.5,0.6c0.1,0.3,0.1,0.5-0.1,0.8c-0.3,0.5-0.9,0.7-1.3,0.4l-1.8-0.9    C71.9,36.6,71.7,36,71.9,35.5z"></path>
      </g>
    </g>
    <g id="fertilizer"></g>
    <g id="bee"></g>
    <g id="butterfly"></g>
    <g id="shovel"></g>
    <g id="ladybug"></g>
    <g id="watering"></g>
    <g id="hanging_pot"></g>
    <g id="green_house"></g>
  </symbol>
  <symbol version="1.1" id="pipe" xmlns="http://www.w3.org/2000/svg" xmlns:xlink="http://www.w3.org/1999/xlink" xml:space="preserve" viewBox="-80 -80 680 680">
    <g>
      <g>
        <g>
          <path d="M485.703,125.9h-49.244v-7.277c0-9.883-8.015-17.903-17.903-17.903h-31.341c-9.888,0-17.903,8.02-17.903,17.903v7.279
				h-67.148V75.541c0-4.636-3.758-8.393-8.393-8.393h-3.206l8.393-16.787h45.173c13.868,0,25.18-11.312,25.18-25.18
				S357.999,0,344.131,0H142.688c-13.868,0-25.18,11.312-25.18,25.18s11.312,25.18,25.18,25.18h45.173l8.393,16.787h-3.206
				c-4.636,0-8.393,3.758-8.393,8.393v67.89c-90.838,35.922-155.94,123.224-159.32,225.881h-7.43
				c-9.89,0-17.903,8.013-17.903,17.903v31.341c0,9.89,8.013,17.903,17.903,17.903h7.277v49.244c0,9.89,8.013,17.903,17.903,17.903
				h115.276c9.89,0,17.903-8.013,17.903-17.903v-49.244h7.277c9.89,0,17.903-8.013,17.903-17.903v-31.341
				c0-9.89-8.013-17.903-17.903-17.903h-6.926c4.281-51.617,47.667-92.328,100.368-92.328h92.328v7.275
				c0,9.89,8.013,17.903,17.903,17.903h31.341c9.89,0,17.903-8.013,17.903-17.903v-7.277h49.244c9.89,0,17.903-8.013,17.903-17.903
				V143.803C503.606,133.92,495.591,125.9,485.703,125.9z M134.295,25.18c0-4.597,3.796-8.393,8.393-8.393h201.443
				c4.597,0,8.393,3.796,8.393,8.393s-3.796,8.393-8.393,8.393H293.77H193.049h-50.361C138.091,33.574,134.295,29.778,134.295,25.18
				z M206.63,50.361h73.56l-8.393,16.787h-56.773L206.63,50.361z M201.442,83.934h8.393h67.148h8.393v41.967h-8.393
				c-1.945,0-3.886,0.03-5.825,0.074c-0.589,0.013-1.177,0.033-1.765,0.05c-1.404,0.042-2.806,0.095-4.207,0.16
				c-0.608,0.028-1.216,0.054-1.823,0.087c-1.776,0.095-3.549,0.206-5.319,0.338c-0.328,0.024-0.654,0.051-0.981,0.077
				c-1.669,0.131-3.336,0.281-4.999,0.445c-0.717,0.071-1.431,0.149-2.146,0.226c-1.187,0.128-2.372,0.263-3.555,0.408
				c-0.766,0.093-1.531,0.186-2.294,0.286c-1.287,0.169-2.572,0.352-3.855,0.541c-1.013,0.149-2.024,0.304-3.034,0.465
				c-1.267,0.202-2.533,0.409-3.796,0.631c-0.901,0.158-1.799,0.327-2.697,0.494c-0.911,0.17-1.822,0.344-2.731,0.525
				c-0.956,0.189-1.911,0.381-2.862,0.581c-0.832,0.175-1.661,0.36-2.49,0.543c-1.895,0.419-3.781,0.859-5.66,1.321
				c-0.625,0.154-1.251,0.3-1.875,0.459c-1.089,0.276-2.172,0.567-3.255,0.858c-0.654,0.175-1.308,0.351-1.96,0.532
				c-1.101,0.305-2.199,0.616-3.294,0.935c-0.581,0.17-1.161,0.345-1.741,0.519c-1.127,0.338-2.255,0.673-3.375,1.026V83.934z
				 M159.477,485.703c0,0.619-0.498,1.116-1.116,1.116H43.085c-0.619,0-1.116-0.498-1.116-1.116v-49.244h117.508V485.703z
				 M184.657,387.215v31.341c0,0.619-0.498,1.116-1.116,1.116h-7.277H25.182h-7.277c-0.619,0-1.116-0.498-1.116-1.116v-31.341
				c0-0.619,0.498-1.116,1.116-1.116h7.275h151.082h7.279C184.16,386.098,184.657,386.596,184.657,387.215z M276.983,260.197V243.41
				c0-4.636-3.758-8.393-8.393-8.393h-16.787v-25.18c0-4.636-3.758-8.393-8.393-8.393h-25.18c-4.636,0-8.393,3.758-8.393,8.393
				s3.758,8.393,8.393,8.393h16.787v25.18c0,4.636,3.758,8.393,8.393,8.393h16.787v9.592
				c-54.159,7.779-96.505,52.618-100.425,107.916H42.115c3.448-97.733,66.879-180.467,154.509-212.457
				c1.043-0.381,2.09-0.751,3.138-1.117c0.629-0.22,1.259-0.438,1.89-0.652c1.054-0.358,2.111-0.708,3.17-1.05
				c0.637-0.206,1.275-0.408,1.914-0.609c1.06-0.333,2.122-0.661,3.187-0.979c0.647-0.193,1.296-0.379,1.945-0.567
				c1.064-0.307,2.128-0.613,3.196-0.905c0.657-0.18,1.318-0.35,1.977-0.524c1.071-0.283,2.142-0.567,3.218-0.835
				c0.648-0.161,1.3-0.311,1.95-0.466c1.095-0.263,2.188-0.529,3.287-0.776c0.464-0.104,0.932-0.197,1.398-0.298
				c2.118-0.462,4.244-0.892,6.376-1.295c0.861-0.163,1.72-0.332,2.585-0.486c0.876-0.155,1.756-0.294,2.635-0.44
				c0.93-0.154,1.859-0.311,2.792-0.454c0.859-0.132,1.721-0.25,2.582-0.373c0.962-0.136,1.924-0.272,2.89-0.397
				c0.847-0.109,1.695-0.21,2.544-0.31c0.992-0.117,1.985-0.23,2.98-0.334c0.829-0.087,1.659-0.169,2.489-0.248
				c1.032-0.097,2.065-0.187,3.101-0.27c0.802-0.065,1.603-0.129,2.406-0.186c1.094-0.077,2.191-0.142,3.289-0.205
				c0.75-0.043,1.5-0.089,2.252-0.124c1.225-0.058,2.453-0.099,3.683-0.137c0.63-0.02,1.259-0.047,1.889-0.062
				c1.862-0.044,3.727-0.07,5.599-0.07h16.787h75.541v117.508H276.983z M419.672,284.259c0,0.619-0.498,1.116-1.116,1.116h-31.341
				c-0.619,0-1.116-0.498-1.116-1.116v-7.275V125.902v-7.279c0-0.614,0.502-1.116,1.116-1.116h31.341
				c0.615,0,1.116,0.502,1.116,1.116v7.277v151.082V284.259z M486.819,259.079c0,0.619-0.498,1.116-1.116,1.116h-49.244V142.687
				h49.244c0.615,0,1.116,0.502,1.116,1.116V259.079z"></path>
          <path d="M317.537,297.494c-3.324-4.967-10.627-4.968-13.951-0.001l-24.652,36.83c-15.618,25.071-15.631,47.607,1.038,64.286
				c16.894,16.894,44.275,16.894,61.167,0.002c16.725-16.735,16.71-42.595,0.87-64.533L317.537,297.494z M329.267,386.743
				c-10.335,10.334-27.086,10.334-37.423-0.002c-10.509-10.516-10.501-24.539,1.19-43.312l17.525-26.177l17.669,26.408
				C339.716,359.578,339.725,376.278,329.267,386.743z"></path>
          <path d="M409.864,389.822c-3.324-4.967-10.627-4.968-13.951-0.001l-24.651,36.83c-15.618,25.071-15.631,47.607,1.038,64.286
				c16.894,16.894,44.275,16.894,61.167,0.002c16.725-16.735,16.711-42.595,0.87-64.533L409.864,389.822z M421.595,479.071
				c-10.334,10.334-27.086,10.334-37.423-0.002c-10.509-10.516-10.501-24.539,1.19-43.313l17.525-26.177l17.669,26.408
				C432.044,451.906,432.053,468.606,421.595,479.071z"></path>
        </g>
      </g>
    </g>
  </symbol>
</svg>